<svg height="512" viewBox="0 0 60 59" width="512" xmlns="http://www.w3.org/2000/svg"><g id="Page-1" fill="none" fill-rule="evenodd"><g id="014---Reef-Fish" fill-rule="nonzero" transform="translate(-1)"><g id="Icons" transform="translate(1)"><path id="Shape" d="m44.91 45.01c-.41.29-.84.57-1.27.84-1.7118939 1.0973904-3.6320086 1.829349-5.64 2.15-2.2074836.3674772-4.3435268 1.0794916-6.33 2.11v.01c-2.18 1.06-4.28 2.33-6.33 3.42 2.86-3.82 5.07-9.99 6.66-15.54 2-7 5-15 4-22-.54-3.76-3.97-7.53-7.03-10.19 3.5753249 1.52197457 6.9559602 3.46575591 10.07 5.79 2.569825 4.7282023 3.9302239 10.0186423 3.96 15.4 0 2-1 4 1 9 1.4 3.49 1.82 6.51.91 9.01z" fill="#607d8b"/><path id="Shape" d="m44 36c-2-5-1-7-1-9-.0297761-5.3813577-1.390175-10.6717977-3.96-15.4-3.1140398-2.32424409-6.4946751-4.26802543-10.07-5.79 1.1601371 1.00148402 2.2525371 2.07885099 3.27 3.225 1.3103698.78839951 2.578757 1.6445609 3.8 2.565 2.569825 4.7282023 3.9302239 10.0186423 3.96 15.4 0 2-1 4 1 9 1.4 3.49 1.82 6.51.91 9.01-2.0307355 1.5355088-4.4005047 2.5609227-6.91 2.99-2.2074836.3674772-4.3435268 1.0794916-6.33 2.11v.01c-.578.281-1.15.578-1.717.881-.482463.8801657-1.0212503 1.728263-1.613 2.539 2.05-1.09 4.15-2.36 6.33-3.42v-.01c1.9864732-1.0305084 4.1225164-1.7425228 6.33-2.11 2.5094953-.4290773 4.8792645-1.4544912 6.91-2.99.91-2.5.49-5.52-.91-9.01z" fill="#37474f"/><path id="Shape" d="m13.72 49.48c.3982591-2.1839536.1479499-4.4367363-.72-6.48-1.3563945-.8596962-2.1260798-2.3990667-2-4-.1260798-1.6009333.6436055-3.1403038 2-4 .14-1.19.33-2.29.54-3.3 2.94-13.33 12.25-11.26 9.46-18.7-.3741394-1.0087328-.8856259-1.9610399-1.52-2.83-.8927093-1.20124278-2.0142379-2.21401703-3.3-2.98 4.97 1.41 11.21 4.3 11.82 9.81.83 7.47-9.37 24.59-16.28 32.48z" fill="#607d8b"/><path id="Shape" d="m32 38c-1.59 5.55-3.8 11.72-6.66 15.54-1.967096 1.1560127-4.107999 1.9867101-6.34 2.46-6 1-8 1-6-4 .3259996-.8130124.5672762-1.6574803.72-2.52 6.91-7.89 17.11-25.01 16.28-32.48-.61-5.51-6.85-8.4-11.82-9.81-3.81-2.31-8.56-2.54-11.18-3.19-4-1-3-3-2-3 8.2305026-.05142759 16.3844574 1.58208589 23.96 4.8l.01.01c3.06 2.66 6.49 6.43 7.03 10.19 1 7-2 15-4 22z" fill="#f5f5f5"/><path id="Shape" d="m59 31c0 4-3 5-6 7-1.9 1.26-4.59 4.53-8.09 7.01.91-2.5.49-5.52-.91-9.01-2-5-1-7-1-9-.0297761-5.3813577-1.390175-10.6717977-3.96-15.4 3.58 2.68 5.95 5.38 6.96 7.4 3 6 7 10 9 10s4 0 4 2z" fill="#f5f5f5"/><path id="Shape" d="m55 29c-2 0-6-4-9-10-1.01-2.02-3.38-4.72-6.96-7.4.808659 1.5026283 1.5029574 3.0640475 2.077 4.671.7316732.8333322 1.3636127 1.7491914 1.883 2.729 3 6 7 10 9 10s4 0 4 2c0 4-3 5-6 7-1.6194828 1.2881995-3.1605613 2.6719978-4.615 4.144.0096273.9756938-.1511181 1.9455807-.475 2.866 3.5-2.48 6.19-5.75 8.09-7.01 3-2 6-3 6-7 0-2-2-2-4-2z" fill="#cfd8dc"/><path id="Shape" d="m43.64 45.85c-.74 4.35-2.87 12.15-8.64 12.15-6.67 0-4.3-4.17-3.33-7.88v-.01c1.9864732-1.0305084 4.1225164-1.7425228 6.33-2.11 2.0079914-.320651 3.9281061-1.0526096 5.64-2.15z" fill="#607d8b"/><g fill="#37474f"><path id="Shape" d="m40.336 47.413c-.876 4.053-2.842 9.549-7.108 10.448.5857944.0953564 1.1785021.1418498 1.772.139 5.77 0 7.9-7.8 8.64-12.15-1.0405597.6408142-2.1485837 1.1649793-3.304 1.563z"/><path id="Shape" d="m13 43-7.91 4.84c-.48952318.2962128-1.12364637.1754274-1.47-.28-1.77727383-2.4943176-2.6966954-5.4982292-2.62-8.56-.0766954-3.0617708.84272617-6.0656824 2.62-8.56.34635363-.4554274.98047682-.5762128 1.47-.28l7.91 4.84c-1.3563945.8596962-2.1260798 2.3990667-2 4-.1260798 1.6009333.6436055 3.1403038 2 4z"/><path id="Shape" d="m13.54 31.7c-3.54-3.56-3.54-7.03-3.54-9.7 0-3 5-6 9-8 1.4831449-.7064218 2.4422665-2.187646 2.48-3.83.6343741.8689601 1.1458606 1.8212672 1.52 2.83 2.79 7.44-6.52 5.37-9.46 18.7z"/></g><circle id="Oval" cx="56" cy="22" fill="#02a9f4" r="2"/><circle id="Oval" cx="51" cy="11" fill="#02a9f4" r="3"/><path id="Shape" d="m51 27c0 2.209139-1.790861 4-4 4s-4-1.790861-4-4 1.790861-4 4-4c.5333995-.0033031 1.0615192.1057281 1.55.32.717219 1.0576563 1.5163392 2.0573925 2.39 2.99.0406788.2277317.0607599.4586649.06.69z" fill="#ffdc00"/></g><g id="Icons_copy" fill="#000"><path id="Shape" d="m5.507 49c.38862707.0013227.77039925-.1023258 1.105-.3l6.873-4.207c.6639567 2.3593709.518198 4.8731792-.414 7.14-.731 1.828-1.272 3.686-.3 4.9.7367821.7544105 1.7832891 1.1219822 2.83.994 1.5316827-.061985 3.0564229-.240501 4.561-.534 3.012-.5 5.9-2.121 8.952-3.835.638-.358 1.281-.716 1.928-1.067-.57 1.9-1 3.8.06 5.23.84 1.128 2.441 1.679 4.898 1.679 6.263 0 8.654-7.653 9.544-12.537 2.2091778-1.503126 4.2677655-3.2164389 6.147-5.116.89007-.9091548 1.8474528-1.7498733 2.864-2.515.5-.335 1.006-.642 1.494-.939 2.434-1.484 4.951-3.018 4.951-6.893 0-3-3.009-3-5-3-1.214 0-4.96-3.157-8.1-9.447-3.24-6.47-18.85-18.553-41.9-18.553-.96190298.02111222-1.76251049.74506582-1.88 1.7-.085.69.1 2.39 3.637 3.275.719.18 1.585.328 2.5.485 3.612.617 8.309 1.421 11.166 4.983-.108256 1.1572766-.8196558 2.171335-1.871 2.667-6.516 3.254-9.552 6.08-9.552 8.89 0 2.673.011 6.3 3.471 10.02-.088.43-.169.875-.243 1.335l-6.628-4.055c-.9301949-.5575439-2.13122055-.3227764-2.783.544-1.90596942 2.6663-2.89454613 5.8794375-2.817 9.156-.07769106 3.2773548.91126067 6.4912725 2.818 9.158.39807073.5320877 1.02449118.8443707 1.689.842zm8.94-13.1c.3014897-.1507384.506753-.4432198.546-.778 1.045-8.878 4.619-12.043 7.229-14.354 2.32-2.053 4.322-3.826 2.715-8.114-.3768187-1.0043709-.8787778-1.9572196-1.494-2.836 3.31 1.555 6.185 3.877 6.563 7.3.7 6.3-7.414 20.862-14.151 29.427-.0777038-1.3749413-.402916-2.724572-.96-3.984-.0977062-.1871425-.2492135-.3407395-.435-.441-1.0164767-.6982628-1.5751707-1.8921842-1.46-3.12-.1105278-1.2184107.4420624-2.4022598 1.447-3.1zm23.543-20.042c-.4884078-2.4393034-1.6064145-4.7084123-3.243-6.582 1.5429653.8742676 3.0322883 1.83999 4.46 2.892 2.4573784 4.5597592 3.7597053 9.6523278 3.793 14.832-.0087216.4348758-.0421086.8689065-.1 1.3-.383476 2.7467726.0244832 5.5459418 1.176 8.069 1.317 3.284 1.635 5.9.993 8-1.837484 1.3469294-3.9620236 2.2498673-6.207 2.638-3.46.494-6.609 2.109-9.645 3.8 2.004011-4.0049636 3.5948873-8.2036307 4.748-12.531.317-1.108.659-2.24 1.005-3.39 1.822-6.057 3.892-12.921 3.02-19.028zm10.933 8.306c.6323641.8987805 1.3182719 1.7586698 2.054 2.575.008.087.023.17.023.261 0 1.2133867-.7309265 2.3072956-1.8519497 2.7716386s-2.4113767.2076757-3.2693706-.6503183c-.857994-.8579939-1.1146613-2.1483474-.6503183-3.2693706s1.5582519-1.8519497 2.7716386-1.8519497c.3146324.0031041.6265566.0585273.923.164zm-12.923 32.836c-1.728 0-2.864-.3-3.285-.873-.584-.792-.058-2.5.451-4.143.119-.386.229-.771.338-1.156 1.7772348-.8902135 3.6775714-1.5097272 5.638-1.838 1.4211257-.2136458 2.8027789-.6365665 4.1-1.255-.96 4.135-3.001 9.265-7.242 9.265zm20-27c2.586 0 3 .237 3 1 0 .029-.006.051-.006.079-1.1953281.1488583-2.3579261.4938198-3.441 1.021-.4942949.2468713-.6948713.8477051-.448 1.342s.8477051.6948713 1.342.448c.6485766-.3189858 1.3350823-.5542055 2.043-.7-.661 1.249-1.917 2.035-3.481 2.989-.511.311-1.037.632-1.564.983-1.1158361.8286203-2.1644346 1.7441376-3.136 2.738-.881.842-1.863 1.78-2.939 2.694.0170324-2.3980341-.4740792-4.7724791-1.441-6.967-.6701108-1.5354181-1.0647963-3.1767814-1.166-4.849 1.2691507 1.1110649 3.0171798 1.498408 4.6368819 1.0274796 1.6197022-.4709284 2.887543-1.7351357 3.3631181-3.3534796.8819712.8542527 2.0183807 1.3977071 3.237 1.548zm-9.9-10.553c.453.905.936 1.772 1.435 2.6-1.0292083.0938177-2.0033241.5071001-2.786 1.182-.3292962-2.7579464-.9987194-5.4645255-1.993-8.058 1.3371498 1.2376829 2.4677599 2.6812447 3.349 4.276zm-37.857-16.417c-1.478-.369-1.986-.83-2.107-1.03031446 7.9817601-.02558353 15.8877678 1.5484094 23.251 4.62931446 2.76 2.411 6.118 6 6.623 9.513.81 5.669-1.106 12.022-2.959 18.166-.349 1.159-.694 2.3-1.012 3.418-1.962 6.876-4.1 11.925-6.359 15.032-1.8173176 1.0552272-3.7899837 1.816619-5.845 2.256-1.634.272-5.037.839-5.5.258-.063-.078-.33-.585.6-2.9.3125313-.7852753.5505777-1.5981821.711-2.428 6.284-7.267 17.271-24.744 16.348-33.054-.665-6.006-7.069-9.085-12.394-10.617-2.8043805-1.47197047-5.8547566-2.41758707-9-2.79-.921-.156-1.712-.292-2.357-.453zm3.757 18.97c0-1.076 1.1-3.431 8.449-7.106.9835388-.4775615 1.7968206-1.245467 2.33-2.2.1.215.2.424.284.654 1.125 3 .094 3.914-2.167 5.915-3.3040701 2.6506164-5.6946948 6.2697759-6.836 10.349-2.054-2.772-2.06-5.422-2.06-7.612zm-6.583 9.042c.03759014-.0431911.09943347-.0558874.151-.031l6.75 4.132c-1.7582397 2.2707687-1.7582397 5.4432313 0 7.714l-6.738 4.125c-.05311405.0318464-.12131914.021804-.163-.024-1.64645498-2.3208044-2.49466534-5.1135466-2.417-7.958-.07766534-2.8444534.77054502-5.6371956 2.417-7.958z"/><circle id="Oval" cx="49" cy="27" r="1"/><path id="Shape" d="m57 25c1.6568542 0 3-1.3431458 3-3s-1.3431458-3-3-3-3 1.3431458-3 3 1.3431458 3 3 3zm0-4c.5522847 0 1 .4477153 1 1s-.4477153 1-1 1-1-.4477153-1-1 .4477153-1 1-1z"/><path id="Shape" d="m52 7c-2.209139 0-4 1.790861-4 4s1.790861 4 4 4 4-1.790861 4-4c0-1.06086596-.4214274-2.07828161-1.1715729-2.82842712-.7501455-.75014552-1.7675611-1.17157288-2.8284271-1.17157288zm0 6c-1.1045695 0-2-.8954305-2-2s.8954305-2 2-2 2 .8954305 2 2-.8954305 2-2 2z"/><circle id="Oval" cx="58" cy="15" r="1"/><path id="Shape" d="m8 39c0-.5522847-.44771525-1-1-1h-2c-.55228475 0-1 .4477153-1 1s.44771525 1 1 1h2c.55228475 0 1-.4477153 1-1z"/><path id="Shape" d="m5.553 35.9 2 1c.49429485.2468713 1.09512872.0462949 1.342-.448s.04629485-1.0951287-.448-1.342l-2-1c-.3197527-.1596977-.7004141-.1366785-.99859274.0603866-.29817863.1970651-.46857407.5382372-.447.895.02157407.3567629.23184004.6749157.55159274.8346134z"/><path id="Shape" d="m6.447 43.9 2-1c.31975273-.1596977.53001872-.4778505.5515928-.8346134.02157408-.3567628-.14882136-.6979349-.44700002-.895-.29817865-.1970651-.67884007-.2200844-.99859278-.0603866l-2 1c-.3197527.1596977-.53001867.4778505-.55159274.8346134-.02157407.3567628.14882137.6979349.447.895.29817864.1970651.67884004.2200843.99859274.0603866z"/></g></g></g></svg>