<?xml version="1.0" encoding="UTF-8" standalone="no"?>
<!-- Created with Inkscape (http://www.inkscape.org/) -->

<svg
   xmlns:dc="http://purl.org/dc/elements/1.1/"
   xmlns:cc="http://creativecommons.org/ns#"
   xmlns:rdf="http://www.w3.org/1999/02/22-rdf-syntax-ns#"
   xmlns:svg="http://www.w3.org/2000/svg"
   xmlns="http://www.w3.org/2000/svg"
   xmlns:sodipodi="http://sodipodi.sourceforge.net/DTD/sodipodi-0.dtd"
   xmlns:inkscape="http://www.inkscape.org/namespaces/inkscape"
   width="744.09448819"
   height="1052.3622047"
   id="svg2"
   version="1.1"
   inkscape:version="0.48.2 r9819"
   sodipodi:docname="Ariel Mermaid.svg">
  <defs
     id="defs4">
    <inkscape:path-effect
       effect="spiro"
       id="path-effect3904"
       is_visible="true" />
    <inkscape:path-effect
       effect="spiro"
       id="path-effect3897"
       is_visible="true" />
    <inkscape:path-effect
       effect="spiro"
       id="path-effect3869"
       is_visible="true" />
    <inkscape:path-effect
       effect="spiro"
       id="path-effect3841"
       is_visible="true" />
    <inkscape:path-effect
       effect="spiro"
       id="path-effect3837"
       is_visible="true" />
    <inkscape:path-effect
       effect="spiro"
       id="path-effect3833"
       is_visible="true" />
    <inkscape:path-effect
       effect="spiro"
       id="path-effect3829"
       is_visible="true" />
    <inkscape:path-effect
       effect="spiro"
       id="path-effect3824"
       is_visible="true" />
    <inkscape:path-effect
       effect="spiro"
       id="path-effect3813"
       is_visible="true" />
    <inkscape:path-effect
       effect="spiro"
       id="path-effect3808"
       is_visible="true" />
    <inkscape:path-effect
       effect="spiro"
       id="path-effect3015"
       is_visible="true" />
    <inkscape:path-effect
       effect="spiro"
       id="path-effect3011"
       is_visible="true" />
    <inkscape:path-effect
       effect="spiro"
       id="path-effect3007"
       is_visible="true" />
    <inkscape:path-effect
       effect="spiro"
       id="path-effect3000"
       is_visible="true" />
    <inkscape:path-effect
       effect="spiro"
       id="path-effect2999"
       is_visible="true" />
  </defs>
  <sodipodi:namedview
     id="base"
     pagecolor="#ffffff"
     bordercolor="#666666"
     borderopacity="1.0"
     inkscape:pageopacity="0.0"
     inkscape:pageshadow="2"
     inkscape:zoom="0.5875207"
     inkscape:cx="208.65681"
     inkscape:cy="628.99482"
     inkscape:document-units="px"
     inkscape:current-layer="layer1"
     showgrid="false"
     inkscape:window-width="1366"
     inkscape:window-height="746"
     inkscape:window-x="-8"
     inkscape:window-y="-8"
     inkscape:window-maximized="1" />
  <metadata
     id="metadata7">
    <rdf:RDF>
      <cc:Work
         rdf:about="">
        <dc:format>image/svg+xml</dc:format>
        <dc:type
           rdf:resource="http://purl.org/dc/dcmitype/StillImage" />
        <dc:title />
      </cc:Work>
    </rdf:RDF>
  </metadata>
  <g
     inkscape:label="Layer 1"
     inkscape:groupmode="layer"
     id="layer1" />
  <g
     inkscape:groupmode="layer"
     id="layer2"
     inkscape:label="Layer">
    <path
       sodipodi:nodetypes="cccccccccccccccccccccccccccccccccc"
       inkscape:connector-curvature="0"
       id="path3002"
       d="m 245.0473,220.89998 c 121.45785,-28.41224 114.26075,24.43127 139.40878,56.84629 76.299,16.48352 89.14652,64.2536 93.39035,113.69261 9.40465,3.36521 12.33618,-7.19879 20.00036,-9.92521 l -15.93991,20.75307 c 14.69505,39.31593 64.69059,28.26352 58.19978,29.77663 18.48216,-3.5475 36.55928,-5.47486 54.13934,-5.41393 105.923,29.07731 76.50324,96.71894 37.89754,123.16698 -18.04645,9.44612 -36.09289,17.17221 -54.13935,23.00922 l -0.67674,18.27202 c 16.376,2.16843 32.78912,1.53149 49.40215,-14.21157 -18.20483,41.88118 -50.54298,39.80945 -78.50204,46.01843 -35.33424,-0.35776 -67.51715,4.6472 -130.61114,-32.14523 3.78614,15.07029 3.35419,23.11041 4.73719,34.17546 21.05857,-2.70039 44.14518,-3.37384 66.32069,-0.33837 44.60508,16.15663 47.20579,41.33682 59.55326,65.9823 -27.87088,8.8187 -60.60205,-0.4151 -94.74383,-14.88831 18.54787,26.19247 28.73718,45.4987 32.4836,69.70438 -24.97366,6.06692 -49.02813,2.06932 -75.79507,-25.03943 -7.50608,-16.81534 -15.22285,-33.27953 -12.18135,-67.67417 l -53.80096,-52.10911 -2.36859,-9.47438 c -8.3115,-2.32088 -20.2645,-2.82186 -12.18135,-18.94876 l -6.9636,-7.0001 -16.38399,-5.858 -76.13344,0 c -18.78781,-0.2146 -36.69727,-1.60035 -52.78585,-5.41393 -20.50942,-11.43135 -41.87362,-19.59898 -52.78585,-67.67417 0.73736,-17.19703 4.18422,-35.44091 23.68596,-49.06376 l 42.29635,-6.76742 0.33838,-30.79175 c -75.9445,-3.01202 -82.78227,-29.66582 -92.036869,-55.49281 -3.27259,-33.47765 11.852669,-63.97186 41.957979,-92.03687 40.35276,-41.56201 71.64803,-32.80463 104.21822,-31.13011"
       style="fill:#ae1a3e;fill-opacity:1;stroke:none" />
    <path
       style="fill:#cd294b;fill-opacity:1;stroke:none"
       d="m 243.63554,220.86702 c 121.45785,-28.41224 114.26075,24.43127 139.40878,56.84629 76.299,16.48352 89.14652,64.2536 93.39035,113.69261 9.40465,3.36521 15.34504,-8.10145 23.00922,-10.82787 l -18.94877,21.65573 c 14.69505,39.31593 64.69059,28.26352 58.19978,29.77663 18.48216,-3.5475 36.55928,-5.47486 54.13933,-5.41393 105.923,29.07731 76.50324,96.71894 37.89754,123.16698 -18.04645,9.44612 -36.09289,17.17221 -54.13934,23.00922 l -0.67674,18.27202 c 16.37599,2.16843 32.78911,1.53149 49.40214,-14.21157 -18.20483,41.88118 -50.54297,39.80945 -78.50203,46.01843 -35.33424,-0.35776 -67.51715,4.6472 -130.61114,-32.14523 0.87308,-7.15688 -6.98928,-22.15575 -12.22438,-24.69866 44.009,16.88359 81.41827,24.93402 121.51476,22.61809 30.30823,-10.03485 40.54877,-30.87539 32.87309,-61.36311 -8.77097,-12.23142 -25.67168,-24.67677 -89.30523,-38.35194 -12.92984,-5.73075 -23.07844,-4.80676 -41.63925,-20.27174 -2.83262,15.72127 -19.05653,32.91016 -47.1181,20.81963 -13.20286,7.037 -27.06502,18.99579 -41.63925,19.17597 -23.84655,8.94999 -52.02081,5.53468 -63.55464,5.47885 -26.29016,-5.63869 -50.22603,-18.84743 -70.67715,-40.54348 -13.1872,2.45683 -17.73655,9.84958 -20.81962,18.0802 -6.56073,18.44083 2.83685,31.56222 18.0802,42.73502 40.09556,13.31481 78.70121,17.69009 117.37802,22.49241 l -14.19245,2.36027 -76.13344,0 c -18.78781,-0.2146 -36.69727,-1.60035 -52.78585,-5.41393 -20.50942,-11.43135 -41.87362,-19.59898 -52.78585,-67.67417 0.73736,-17.19703 4.18422,-35.44091 23.68596,-49.06376 l 42.29635,-6.76742 0.33838,-30.79175 c -75.9445,-3.01202 -82.78227,-29.66582 -92.036869,-55.49281 -3.27258,-33.47765 11.852669,-63.97186 41.957979,-92.03687 40.35276,-41.56201 71.64803,-32.80463 104.21822,-31.13011"
       id="path2997"
       inkscape:connector-curvature="0"
       sodipodi:nodetypes="ccccccccccccccccccccccccccccccccccc" />
    <path
       style="fill:#dda68f;fill-opacity:1;stroke:none"
       d="m 387.35969,559.33295 c 25.57512,9.16637 25.54006,17.77698 29.91906,32.50518 3.7862,15.07029 3.3542,23.11041 4.7372,34.17546 21.0586,-2.70039 44.1452,-3.37384 66.3207,-0.33837 44.6051,16.15663 47.2058,41.33682 59.5533,65.9823 -27.8709,8.8187 -60.6021,-0.4151 -94.7439,-14.88831 18.5479,26.19247 28.7372,45.4987 32.4836,69.70438 -24.9736,6.06692 -49.0281,2.06932 -75.795,-25.03943 -7.5061,-16.81534 -15.2229,-33.27953 -12.1814,-67.67417 l -53.80095,-52.10911 -2.36859,-9.47438 c -8.3115,-2.32088 -20.2645,-2.82186 -12.18135,-18.94876 -2.54477,-2.65427 -5.91182,-5.96637 -11.03144,-10.68052 l -11.15391,-3.72723 c -0.87819,-4.66456 -4.3065,-6.41557 -2.90841,-16.89043 -6.42702,0.16694 -18.65493,0.74317 -28.43126,-2.91921 -19.10999,-7.15894 -40.93533,-18.6711 -51.07588,-22.95447 -4.39719,-2.45087 -12.96528,3.33949 -15.01659,2.2941 -4.7741,-2.43296 2.23792,-4.4101 1.95997,-7.79996 -0.15966,-1.94721 -11.42993,-6.10043 -10.37039,-7.76723 23.31733,-16.76276 24.1199,4.08169 29.69378,7.34898 15.57445,9.1294 28.55093,6.7596 42.34237,8.45209 21.06524,2.58515 41.03695,0.45484 47.82497,0.5561 1.13467,0.0169 2.25274,-7.55126 1.96684,-7.43157 -8.93387,3.74006 -56.10644,2.50933 -69.02151,-4.20834 -2.16127,-1.12417 -38.26152,-18.02349 -43.13855,-27.09513 -7.70821,-9.75331 -15.81062,-18.8402 -20.71041,-48.95456 l 0.33838,-30.79175 c -75.9445,-3.01202 -82.78227,-29.66582 -92.036869,-55.49281 -3.27258,-33.47765 11.852669,-63.97186 41.957979,-92.03687 40.35276,-41.56201 71.64803,-32.80463 104.21822,-31.13011 69.66006,-19.47068 121.66135,-8.92145 139.78586,59.21831 36.02738,98.88422 46.1025,106.93549 55.88426,113.96005 37.17302,5.56494 43.05068,-6.84831 57.66085,-14.24501 -3.92199,15.09053 -16.94732,26.00284 -41.19107,34.0961 -19.67302,1.52127 -39.4945,1.41508 -58.65692,-0.12724 0.54884,13.96246 -6.33989,29.99206 -28.396,51.14701 5.82079,0.34081 11.57914,0.36938 16.89042,-1.83737 l 1.83737,5.51209 c 7.99901,-3.12643 15.9108,-7.88974 24.42217,-10.50382 7.10128,-0.12582 14.01356,4.76903 14.60488,9.40805 0.14342,10.48239 -3.43509,17.0708 -17.01195,23.52581 -5.79227,1.16071 -31.25512,7.55973 -28.23555,-5.47885 -11.3034,11.51358 -23.69322,21.02147 -41.63925,20.27174 l 0,7.67039 c 8.34175,-5.47368 22.3275,-4.24547 28.08136,-2.13765 22.70007,15.64358 40.11796,29.08853 54.10137,42.68113 l 20.27174,-3.28731 c 2.08316,0.16133 4.58926,0.74485 6.7173,1.57458 1.73247,0.6755 3.21436,1.51418 4.01346,2.42109 2.41527,5.94579 2.14163,4.87276 1.42242,10.67568 -1.78118,3.15324 -4.92731,0.78679 -7.38269,0.80237 2.72522,2.40104 4.98426,4.17471 -0.32094,4.38309 -6.70511,0.80887 -13.53483,-2.78202 -18.69455,-5.06392 l -8.21828,-3.83519 c -12.90736,-5.71794 -24.37574,-9.35735 -41.63925,-21.36751 l -16.43654,-7.67039 c -5.42147,-0.32274 -8.51026,1.31415 -7.67039,6.02673 0.24996,5.09424 0.61597,9.84031 -0.54788,19.17597 l 7.67038,0.54789 c 6.16256,-12.38151 12.06139,-26.18712 25.32746,-0.20969 z"
       id="path3006"
       inkscape:connector-curvature="0"
       sodipodi:nodetypes="cccccccccccccccscsscssssscccccccccccccccccccccccscccccccccccc" />
    <path
       sodipodi:nodetypes="ccccccccccccccc"
       inkscape:connector-curvature="0"
       id="path3010"
       d="m 387.05881,559.33295 c 25.57512,9.16637 25.54006,17.77698 29.91906,32.50518 3.7862,15.07029 3.3542,23.11041 4.7372,34.17546 21.0586,-2.70039 44.1452,-3.37384 66.3207,-0.33837 44.6051,16.15663 47.2058,41.33682 59.5533,65.9823 -27.8709,8.8187 -60.6021,-0.4151 -94.7439,-14.88831 18.5479,26.19247 28.7372,45.4987 32.4836,69.70438 -24.9736,6.06692 -49.0281,2.06932 -75.795,-25.03943 -7.5061,-16.81534 -15.2229,-33.27953 -12.1814,-67.67417 l -53.80095,-52.10911 -2.36859,-9.47438 c -8.3115,-2.32088 -20.2645,-2.82186 -12.18135,-18.94876 8.39831,17.80296 17.20387,20.92169 25.05949,14.25702 3.18086,-10.75941 3.74026,-20.38114 7.67038,-27.94212 3.62801,-16.18333 11.97975,-26.30958 25.32746,-0.20969 z"
       style="fill:#92c6a0;fill-opacity:1;stroke:none" />
    <path
       style="fill:#398970;fill-opacity:1;stroke:none"
       d="m 387.01358,558.85509 c 25.57512,9.16637 25.54006,17.77698 29.91906,32.50518 3.7862,15.07029 4.51644,23.11041 5.89944,34.17546 2.58546,24.08396 3.79759,26.5183 4.3346,39.56518 -12.37638,-1.7916 -12.12155,-1.41322 -29.85954,-11.81878 l -53.80095,-52.10911 -1.59376,-5.98766 c 6.79761,1.16584 8.01665,3.76416 14.55015,2.35896 4.13677,-3.89218 8.68078,-6.97205 7.6259,-16.34862 3.18086,-10.75941 3.35285,-9.14616 9.99486,-15.5449 6.07311,-5.6281 5.76404,-5.07024 12.93024,-6.79571 z"
       id="path3012"
       inkscape:connector-curvature="0"
       sodipodi:nodetypes="ccccccccccc" />
    <path
       style="fill:#92c6a0;fill-opacity:1;stroke:none"
       d="m 424.42304,626.01359 c 21.0586,-2.70039 44.1452,-3.37384 66.3207,-0.33837 44.6051,16.15663 47.2058,41.33682 59.5533,65.9823 -27.8709,8.8187 -60.6021,-0.4151 -94.7439,-14.88831 -34.98524,-8.7969 -49.51712,-55.87902 -31.1301,-50.75562 z"
       id="path2991"
       inkscape:connector-curvature="0"
       sodipodi:nodetypes="ccccc" />
    <path
       sodipodi:nodetypes="scccccs"
       inkscape:connector-curvature="0"
       id="path3820"
       d="m 341.30996,330.15625 c 2.616,-0.10737 6.84543,1.1898 9.31539,1.6061 9.87985,1.66506 17.50671,7.70087 22.67043,12.11082 -5.41766,-0.79446 -16.25241,-7.41161 -23.9375,-8.71875 -4.5109,-0.66527 -17.90196,1.55652 -27.74711,10.91387 l -4.82301,-6.02286 c 7.7965,-7.4102 16.67379,-9.56707 24.5218,-9.88918 z"
       style="font-size:medium;font-style:normal;font-variant:normal;font-weight:normal;font-stretch:normal;text-indent:0;text-align:start;text-decoration:none;line-height:normal;letter-spacing:normal;word-spacing:normal;text-transform:none;direction:ltr;block-progression:tb;writing-mode:lr-tb;text-anchor:start;baseline-shift:baseline;color:#000000;fill:#7c2b23;fill-opacity:1;stroke:none;stroke-width:2.5999999;marker:none;visibility:visible;display:inline;overflow:visible;enable-background:accumulate;font-family:Sans;-inkscape-font-specification:Sans" />
    <path
       sodipodi:nodetypes="cccccccccssc"
       inkscape:connector-curvature="0"
       id="path2993"
       d="m 190.52511,401.2604 c -75.9445,-3.01202 -82.78227,-29.66582 -92.036869,-55.49281 -3.27259,-33.47765 11.852669,-63.97186 41.957979,-92.03687 40.35276,-41.56201 71.64803,-32.80463 104.21822,-31.13011 69.66006,-19.47068 121.66135,-8.92145 139.78586,59.21831 36.02738,98.88422 46.1025,106.93549 55.88426,113.96005 37.17302,5.56494 43.05068,-6.84831 57.66085,-14.24501 -3.92199,15.09053 -16.94732,26.00284 -41.19107,34.0961 -19.67302,1.52127 -39.4945,1.41508 -58.65692,-0.12724 -4.80118,-7.63422 -50.27631,-36.58427 -69.83061,-70.57005 -16.94391,-29.44888 -66.91406,-42.42265 -84.49138,-32.47913 -30.102,17.02873 -50.52866,41.32266 -53.30032,88.80676 z"
       style="fill:#ae1a3e;fill-opacity:1;stroke:none" />
    <g
       id="g3913"
       style="stroke:none"
       transform="translate(687.63534,-20.424812)">
      <path
         sodipodi:nodetypes="cccccccccccccccccccccc"
         inkscape:connector-curvature="0"
         style="fill:#000000;stroke:none"
         d="m -384.92102,363.41324 c -0.39827,7.92219 -1.0228,16.90191 0.125,17.09375 -1.33521,0.55952 -3.0518,-0.58286 -7.59375,-8.25 l -1.09375,1.9375 c 4.04248,8.34538 6.43889,11.08068 8.28125,11.34375 -2.7063,1.52995 -5.99514,1.62269 -11.625,-4.15625 5.25895,9.30678 13.98695,10.08985 19.89547,11.60177 -1.32822,2.53947 -4.49638,4.39715 -5.45797,6.14823 -8.82274,7.17382 -9.49268,15.11177 -12.0625,22.875 -2.47464,9.51779 2.08015,23.92747 4.0625,27.875 l -4.125,1.15625 -0.71875,5.21875 c 24.06451,-0.93976 51.86529,4.59979 64.53125,8.875 16.53731,-9.93914 21.85875,-19.91198 22.5625,-36.03125 0.14449,-7.9672 -2.29762,-15.34947 -5.53125,-21 -4.81845,-7.12052 -10.18285,-12.59674 -23.875,-22.84375 -12.91362,-3.9635 -21.8878,-4.45706 -28.25,-3.125 -5.32406,-2.37378 -9.54193,-6.30826 -7.78125,-18.71875 l -1.9375,0 c -1.47185,6.97062 -1.289,11.74176 -0.5625,15.78125 -3.73472,-1.10186 -7.62939,-1.76989 -6.34375,-15.78125 z"
         id="path3875" />
      <path
         id="path3889"
         d="m -376.63091,392.38199 c -1.32822,2.53947 -4.49638,4.39715 -5.45797,6.14823 -8.82274,7.17382 -9.49268,15.11177 -12.0625,22.875 -2.47464,9.51779 2.08015,23.92747 4.0625,27.875 8.29248,4.30047 42.94376,7.89716 59.6875,15.25 16.53731,-9.93914 21.85875,-19.91198 22.5625,-36.03125 0.14449,-7.9672 -2.29762,-15.34947 -5.53125,-21 -4.81845,-7.12052 -12.28905,-12.59674 -22.06968,-17.72869 -11.93836,-0.0958 -22.64538,-1.68452 -41.1911,2.61171 z"
         style="fill:#33a3c9;fill-opacity:1;stroke:none"
         inkscape:connector-curvature="0"
         sodipodi:nodetypes="ccccccccc" />
      <path
         sodipodi:nodetypes="scccccccccccccs"
         inkscape:connector-curvature="0"
         id="path3887"
         d="m -353.84375,389.73036 c -6.48726,0.12787 -13.82089,0.78938 -23.09375,2.9375 -1.32822,2.53947 -4.47591,4.40517 -5.4375,6.15625 -8.82274,7.17382 -9.49268,15.11177 -12.0625,22.875 -2.47464,9.51779 2.08015,23.92747 4.0625,27.875 2.75057,1.42644 8.40856,2.78441 15.34375,4.21875 -11.57811,-12.84829 -9.25254,-27.88845 -2.25,-36 14.96229,15.8685 24.08201,1.82973 10.55807,-13.89272 49.20426,-3.82799 63.99868,39.23407 31.50443,58.23647 -3.23793,-0.62994 -6.31622,-1.24773 -9.375,-1.84375 5.21092,1.34869 10.05274,2.83902 13.90625,4.53125 16.53731,-9.93914 21.85875,-19.91198 22.5625,-36.03125 0.14449,-7.9672 -2.29762,-15.34947 -5.53125,-21 -4.81845,-7.12052 -12.31312,-12.5868 -22.09375,-17.71875 -5.96918,-0.0479 -11.60649,-0.47162 -18.09375,-0.34375 z"
         style="fill:#e6e6e6;fill-opacity:1;stroke:none" />
    </g>
    <path
       style="fill:#cd294b;fill-opacity:1;stroke:none"
       d="m 298.93674,213.61982 c -16.43741,0.11351 -34.62686,3.21137 -54.21875,8.6875 -32.57019,-1.67452 -63.86599,-10.43701 -104.21875,31.125 -30.10531,28.06501 -45.210089,58.5536 -41.937499,92.03125 9.254599,25.82699 16.086749,52.48798 92.031249,55.5 0.6922,-11.85878 2.47977,-22.25471 5.25,-31.46875 -9.64583,-6.75929 -23.68937,-14.2833 -29.5,-34.1875 1.8668,-9.85087 6.45934,-20.96117 26.875,-33.40625 30.7911,-6.94289 46.04682,2.80568 64.21875,7 12.34837,-0.54329 28.5646,3.21694 42.90625,10.6875 -23.0786,-23.20362 -56.47672,-42.90484 -107.75,-45.71875 l 0.125,-2 c 55.23741,3.03146 90.16513,25.65299 113.625,51.15625 9.09674,5.66404 17.01964,12.91471 22.03125,21.625 19.5543,33.98578 65.04257,62.92828 69.84375,70.5625 19.16242,1.54232 38.98323,1.64627 58.65625,0.125 24.24375,-8.09326 37.26551,-19.00322 41.1875,-34.09375 -14.61017,7.3967 -20.48323,19.81494 -57.65625,14.25 -9.78176,-7.02456 -19.87887,-15.08453 -55.90625,-113.96875 -13.02699,-48.97545 -43.55578,-68.19634 -85.5625,-67.90625 z m -45,14.09375 c 38.56694,13.24852 62.12901,40.90329 78.78125,65.65625 8.32612,12.37648 14.94429,24.03703 20.8125,32.8125 5.86821,8.77547 11.04225,14.4657 15.8125,15.4375 l -0.53125,2.75 c -6.34507,-1.29262 -11.62929,-7.70559 -17.59375,-16.625 -5.96446,-8.91941 -12.55825,-20.54285 -20.8125,-32.8125 -16.50851,-24.53931 -39.60817,-51.62009 -77.375,-64.59375 l 0.90625,-2.625 z m 143.40625,142 c 18.11493,24.55765 28.30752,23.56774 40.53125,27 l -0.59375,2.125 c -11.81493,-3.31748 -23.31373,-2.90395 -41.6875,-27.8125 l 1.75,-1.3125 z"
       id="path2995"
       inkscape:connector-curvature="0" />
    <path
       style="fill:#747bb2;fill-opacity:1;stroke:none"
       d="m 319.32005,546.30578 c -1.26207,-6.08868 -3.17223,-7.37501 -11.45601,-8.67879 -4.18661,2.71845 -6.34207,7.00275 -5.90158,12.49746 2.02184,9.8348 7.29954,11.67338 12.84461,12.84462 2.68046,-1.49485 6.06014,-1.59862 5.20728,-4.86013 2.19921,0.10422 5.14009,-1.30453 6.59588,0.34715 6.36678,7.22352 11.31892,3.63119 14.92753,1.04146 1.71412,-0.93984 3.36131,-2.2813 4.16582,-8.6788 l 10.41455,-0.34715 0.34715,-6.24873 -9.37309,-0.34715 c -4.54712,-6.01161 -6.31575,-6.63664 -12.15031,-7.29019 -4.55633,0.37975 -9.96104,2.99696 -10.76171,9.72025 l -4.86012,0"
       id="path3806"
       inkscape:connector-curvature="0"
       sodipodi:nodetypes="cccccscccccccc" />
    <path
       style="font-size:medium;font-style:normal;font-variant:normal;font-weight:normal;font-stretch:normal;text-indent:0;text-align:start;text-decoration:none;line-height:normal;letter-spacing:normal;word-spacing:normal;text-transform:none;direction:ltr;block-progression:tb;writing-mode:lr-tb;text-anchor:start;baseline-shift:baseline;color:#000000;fill:#7c2b23;fill-opacity:1;stroke:none;stroke-width:2.5999999;marker:none;visibility:visible;display:inline;overflow:visible;enable-background:accumulate;font-family:Sans;-inkscape-font-specification:Sans"
       d="m 243.86667,321.85851 c -2.616,-0.10737 -6.84543,1.1898 -9.31539,1.6061 -9.87985,1.66506 -17.50671,7.70087 -22.67043,12.11082 5.41766,-0.79446 16.25241,-7.41161 23.9375,-8.71875 4.5109,-0.66527 17.90196,1.55652 27.74711,10.91387 l 4.82301,-6.02286 c -7.7965,-7.4102 -16.67379,-9.56707 -24.5218,-9.88918 z"
       id="path3811"
       inkscape:connector-curvature="0"
       sodipodi:nodetypes="scccccs" />
    <g
       id="g3908"
       transform="translate(691.03948,-22.12688)"
       style="stroke:none">
      <path
         sodipodi:nodetypes="cccccsccccccccccccccccsccscccc"
         inkscape:connector-curvature="0"
         id="path3881"
         d="m -479.42914,351.58802 c -3.29217,7.97687 -2.99442,8.44827 -2.72593,13.22869 0.66205,6.66875 1.37134,5.76505 0.69941,8.90523 -2.77674,-1.17655 -7.6876,-4.71418 -8.51191,-7.09273 l -1.3431,0.44349 c 0.88825,2.56307 1.85201,5.91137 4.1556,8.43151 1.68002,1.83796 3.8496,3.34806 6.46875,4 -0.57467,0.52317 -1.15567,0.99741 -1.75,1.4375 -5.45034,-0.059 -8.56297,0.22804 -12.75718,-5.83932 -0.24311,6.86598 8.48807,9.47119 10.50359,9.72677 1.85113,0.0723 2.7465,-0.31312 4.50994,-0.12943 -6.98536,10.03459 -7.65379,13.51539 -8.2251,22.08573 -0.2982,15.31542 3.34706,20.24736 5.8125,27.65625 l -2.21875,0.28125 -4.15625,1.09375 2.78125,5.25 c 24.07683,-0.53843 36.34458,4.10797 48.9375,8.59375 16.70071,-9.66206 20.85246,-23.45248 21.82484,-39.55777 0.18435,-6.30587 1.39792,-11.72209 -0.82484,-16.31723 -3.57007,-8.56385 -11.84637,-16.39007 -22.65625,-23.5 -8.30582,-2.23302 -16.54409,-4.65784 -26.28125,-3.3125 -0.90295,0.459 -1.73225,0.9291 -2.53125,1.40625 -0.72656,-1.81416 -1.03092,-4.01214 -1,-6.53125 0.046,-3.74843 0.80989,-8.13105 1.75,-12.65625 l -1.96875,-0.40625 c -0.9483,4.56464 -3.69711,10.50528 -4.45585,14.4293 -0.5666,2.93031 -0.0435,3.85841 -0.55744,5.65643 -1.11647,-0.65008 -4.82724,-0.003 -5.23671,-4.21073 -0.2248,-4.00265 -1.76303,-3.60747 1.46165,-11.4208 z"
         style="fill:#000000;stroke:none" />
      <path
         style="fill:#33a3c9;fill-opacity:1;stroke:none"
         d="m -480.48086,380.99472 c -6.98536,10.03459 -7.65379,13.51539 -8.2251,22.08573 -0.2982,15.31542 1.43223,17.69426 5.17422,30.63487 9.36813,3.29826 44.85322,9.49465 49.59892,12.24013 16.70071,-9.66206 17.23557,-23.45248 18.20795,-39.55777 0.18435,-6.30587 -0.10651,-4.50083 -0.52395,-9.09597 -3.57007,-8.56385 -8.83752,-16.08918 -19.6474,-23.19911 -20.19321,-4.01578 -31.65205,-2.79646 -44.58464,6.89212 z"
         id="path3879"
         inkscape:connector-curvature="0"
         sodipodi:nodetypes="cccccccc" />
      <path
         sodipodi:nodetypes="cccsccccccc"
         inkscape:connector-curvature="0"
         id="path3883"
         d="m -480.81826,382.14666 c -6.98536,10.03459 -7.65379,13.51539 -8.2251,22.08573 -0.2982,15.31542 3.77258,22.37494 6.23802,29.78383 2.71606,0.95625 13.65982,3.54281 12.05737,1.92321 -10.07383,-10.18167 -8.55059,-24.75864 0.94709,-36.48993 20.04916,20.11998 22.84069,-2.60591 14.14807,-11.14034 16.51667,-2.52377 31.88172,6.99756 40.20282,21.02038 0.18435,-5.10183 -0.41778,-6.7324 -1.13619,-10.87603 -3.57007,-8.56385 -8.83752,-16.08918 -19.6474,-23.19911 -20.19321,-4.01578 -31.65205,-2.79646 -44.58464,6.89212 z"
         style="fill:#f2f2f2;stroke:none" />
    </g>
    <path
       style="fill:#dda68f;fill-opacity:1;stroke:#000000;stroke-width:0.80000001;stroke-miterlimit:4;stroke-opacity:1;stroke-dasharray:none"
       d="m 263.31498,446.76975 c -0.49915,3.35036 -5.9411,3.2031 -9.97048,-10e-4 -5.35352,-4.25703 -4.92182,-5.04108 -5.58141,-10.28063 -0.3989,-3.16867 4.17152,-3.43961 8.46606,-0.60029 3.93402,2.60098 7.72643,6.58257 7.08583,10.8824 z"
       id="path3892"
       inkscape:connector-curvature="0"
       sodipodi:nodetypes="cssssc" />
    <path
       sodipodi:nodetypes="cccc"
       inkscape:connector-curvature="0"
       id="path3900"
       d="m 220.01819,449.92965 c 50.17656,14.99491 75.62265,7.62558 113.43398,11.43366 -8.80184,4.53978 -66.19741,81.04776 -95.07994,4.21241 -8.72086,-3.65365 -17.4626,-7.29477 -18.35404,-15.64607"
       style="fill:#e6e6e6;stroke:none" />
    <path
       style="fill:#cd294b;fill-opacity:1;stroke:none"
       d="m 218.62512,450.21499 c 0.89144,8.3513 9.62289,12.0026 18.34375,15.65625 28.88253,76.83535 86.29191,0.32103 95.09375,-4.21875 -37.81133,-3.80808 -63.26094,3.55741 -113.4375,-11.4375 z m 23,14.90625 c 23.17292,1.22156 51.21868,1.55649 76.59375,1.65625 -29.53079,24.69071 -61.75703,31.55536 -76.59375,-1.65625 z"
       id="path3895"
       inkscape:connector-curvature="0" />
  </g>
</svg>
